<svg width="165" height="22" xmlns="http://www.w3.org/2000/svg">
 <style type="text/css">.st0{fill:url(#SVGID_1_);}
	.st1{fill:url(#SVGID_2_);}
	.st2{fill:url(#SVGID_3_);}
	.st3{fill:url(#SVGID_4_);}
	.st4{fill:url(#SVGID_5_);}
	.st5{fill:url(#SVGID_6_);}
	.st6{fill:url(#SVGID_7_);}
	.st7{fill:url(#SVGID_8_);}
	.st8{fill:url(#SVGID_9_);}
	.st9{fill:url(#SVGID_10_);}
	.st10{fill:#FFFFFF;stroke:#000000;stroke-miterlimit:10;}</style>

 <g>
  <title>background</title>
  <rect fill="none" id="canvas_background" height="24" width="167" y="-1" x="-1"/>
 </g>
 <g>
  <title>Layer 1</title>
  <path id="svg_8" d="m109.478433,17.560784l-1.1,-3l-6.2,0l-1.1,3l-1.9,0l5,-13.9l2,0l5,13.9l-1.7,0zm-6.7,-4.5l5.1,0l-2.6,-7.2l-2.5,7.2z" class="st5"/>
  <path id="svg_9" d="m114.578433,16.060784c-1,-1.1 -1.5,-2.4 -1.5,-4.1s0.5,-3 1.5,-4.1c1,-1 2.2,-1.6 3.8,-1.6c0.9,0 1.8,0.2 2.5,0.7s1.2,1 1.6,1.7l0,-6l1.8,0l0,14.8l-1.8,0l0,-2.2c-0.4,0.7 -0.9,1.3 -1.6,1.8c-0.7,0.4 -1.5,0.7 -2.5,0.7c-1.6,-0.1 -2.8,-0.6 -3.8,-1.7zm6.6,-1c0.7,-0.7 1.1,-1.7 1.1,-3c0,-1.2 -0.4,-2.2 -1.1,-3c-0.7,-0.7 -1.6,-1.1 -2.6,-1.1s-1.9,0.4 -2.6,1.1s-1.1,1.7 -1.1,2.9s0.4,2.2 1.1,3s1.6,1.2 2.6,1.2c1.1,0 1.9,-0.4 2.6,-1.1z" class="st6"/>
  <path id="svg_10" d="m128.978433,6.560784l0,1.8c0.7,-1.3 1.9,-2 3.6,-2c0.8,0 1.6,0.2 2.3,0.6c0.7,0.4 1.2,1 1.5,1.8c0.4,-0.7 0.9,-1.3 1.6,-1.7c0.7,-0.4 1.5,-0.6 2.4,-0.6c1.2,0 2.3,0.4 3.1,1.2c0.8,0.8 1.2,2 1.2,3.5l0,6.5l-1.8,0l0,-6.2c0,-1.1 -0.3,-1.9 -0.8,-2.5s-1.3,-0.9 -2.2,-0.9s-1.7,0.3 -2.2,0.9s-0.8,1.4 -0.8,2.5l0,6.2l-1.8,0l0,-6.2c0,-1.1 -0.3,-1.9 -0.8,-2.5s-1.3,-0.9 -2.2,-0.9s-1.7,0.3 -2.2,0.9s-0.8,1.4 -0.8,2.5l0,6.2l-1.8,0l0,-11l1.7,-0.1l0,0z" class="st7"/>
  <path id="svg_11" d="m149.378433,4.460784c-0.2,0.2 -0.5,0.4 -0.9,0.4s-0.6,-0.1 -0.9,-0.4c-0.2,-0.2 -0.3,-0.5 -0.3,-0.9s0.1,-0.6 0.4,-0.9c0.2,-0.2 0.5,-0.4 0.9,-0.4s0.6,0.1 0.9,0.4c0.2,0.2 0.4,0.5 0.4,0.9s-0.3,0.6 -0.5,0.9zm-1.8,13.1l0,-11l1.8,0l0,11l-1.8,0z" class="st8"/>
  <path id="svg_12" d="m154.178433,6.560784l0,1.8c0.7,-1.3 1.9,-2 3.6,-2c1.2,0 2.2,0.4 3,1.2s1.2,2 1.2,3.5l0,6.5l-1.8,0l0,-6.2c0,-1.1 -0.3,-1.9 -0.8,-2.5s-1.3,-0.9 -2.2,-0.9s-1.7,0.3 -2.2,0.9s-0.8,1.4 -0.8,2.5l0,6.2l-1.8,0l0,-11c0,0 1.8,0 1.8,0z" class="st9"/>
  <g id="svg_1">
   <path id="svg_2" d="m15.2,5.5l-4.5,-0.7l-2,-4.3c-0.1,-0.3 -0.4,-0.5 -0.8,-0.5c-0.3,0 -0.6,0.2 -0.8,0.5l-2,4.3l-4.4,0.7c-0.3,0 -0.6,0.3 -0.7,0.6c-0.1,0.3 0,0.7 0.2,0.9l3.3,3.3l-0.8,4.7c-0.1,0.3 0.1,0.7 0.3,0.9c0.3,0.2 0.6,0.2 0.9,0.1l4,-2.2l4,2.2c0.1,0.1 0.3,0.1 0.4,0.1c0.2,0 0.4,-0.1 0.5,-0.2c0.3,-0.2 0.4,-0.5 0.3,-0.9l-0.8,-4.7l3.3,-3.3c0.2,-0.2 0.3,-0.6 0.2,-0.9c0,-0.4 -0.3,-0.6 -0.6,-0.6z" class="st0"/>
  </g>
  <polygon id="svg_13" points="25.1,-43.6 25.1,-43.6 25.1,-43.6 25.1,-43.6 " class="st10"/>
  <text xml:space="preserve" text-anchor="start" font-family="'Palatino Linotype', 'Book Antiqua', Palatino, serif" font-size="15" id="svg_15" y="15.525857" x="18" stroke-width="0" fill="#2b83e2">Compliance</text>
 </g>
</svg>